<?xml version="1.0" standalone="no"?>
<!DOCTYPE svg PUBLIC "-//W3C//DTD SVG 20010904//EN"
 "http://www.w3.org/TR/2001/REC-SVG-20010904/DTD/svg10.dtd">
<svg version="1.0" xmlns="http://www.w3.org/2000/svg"
 width="512.000000pt" height="512.000000pt" viewBox="0 0 512.000000 512.000000"
 preserveAspectRatio="xMidYMid meet">
<metadata>
Created by potrace 1.11, written by Peter Selinger 2001-2013
</metadata>
<g transform="translate(0.000000,512.000000) scale(0.100000,-0.100000)"
fill="#000000" stroke="none">
<path d="M0 2560 l0 -2560 2560 0 2560 0 0 2560 0 2560 -2560 0 -2560 0 0
-2560z m3930 1359 c126 -20 243 -109 298 -227 24 -50 27 -69 27 -157 0 -91 -3
-106 -31 -165 -46 -95 -93 -143 -182 -187 -74 -37 -79 -38 -186 -38 l-111 0
-236 -397 -237 -397 39 -51 c175 -233 35 -573 -256 -620 -245 -40 -470 164
-453 410 l5 67 -87 43 -88 43 -43 -36 c-24 -19 -69 -48 -99 -64 -51 -26 -64
-28 -165 -28 -90 0 -118 4 -155 21 l-45 20 -126 -130 c-69 -72 -145 -152 -168
-178 l-43 -48 22 -47 c90 -191 11 -414 -181 -515 -61 -32 -69 -33 -174 -33
-98 0 -116 3 -166 26 -276 130 -308 507 -59 682 30 21 79 45 109 54 72 21 199
14 262 -14 l47 -21 88 92 c49 50 126 129 172 177 l83 85 -27 59 c-52 114 -41
259 28 367 39 63 92 109 164 144 54 27 68 29 169 29 105 0 113 -2 173 -33 144
-75 234 -232 219 -382 l-6 -56 88 -43 88 -43 49 37 c27 21 74 50 104 64 49 23
67 26 166 26 l110 0 238 399 237 399 -25 26 c-68 72 -108 216 -87 317 38 190
174 310 376 333 6 0 39 -4 75 -10z"/>
<path d="M3808 3726 c-86 -31 -135 -90 -145 -174 -5 -43 -1 -60 22 -107 36
-75 85 -108 170 -113 90 -6 155 31 196 110 20 40 25 120 10 161 -13 34 -68 95
-100 112 -42 21 -112 26 -153 11z"/>
<path d="M2025 2677 c-88 -50 -132 -175 -90 -258 66 -130 217 -164 323 -73
109 93 89 268 -38 332 -60 30 -141 30 -195 -1z"/>
<path d="M2899 2247 c-59 -31 -109 -112 -109 -177 1 -112 97 -210 208 -210 21
0 61 12 90 26 41 20 60 38 83 78 26 45 30 59 27 113 -3 50 -10 71 -33 105 -60
85 -175 113 -266 65z"/>
<path d="M1160 1768 c-29 -15 -57 -41 -78 -73 -31 -46 -34 -55 -30 -115 7
-120 85 -194 204 -195 72 0 128 31 170 95 59 88 31 219 -58 278 -58 38 -146
42 -208 10z"/>
</g>
</svg>
